<svg width="810" height="642" viewBox="0 0 810 642" fill="none" xmlns="http://www.w3.org/2000/svg">
<path d="M218.865 383.8L230.091 341.933L237.575 314.022L190.46 327.978L143.345 341.933L96.2299 355.889L49.1149 369.844L2 383.8H45.373H88.746L77.5203 425.667L66.2945 467.533L55.0688 509.4L43.8429 551.267L32.6172 593.133L21.3914 635H64.7645H108.138H151.51H194.884L206.109 593.133L216.867 553.011L173.962 551.267L185.188 509.4L196.414 467.533L207.639 425.667L218.865 383.8Z" fill="#F0F0F0"/>
<path d="M281.629 635H238.257L249.482 593.133L260.708 551.267L271.934 509.4L283.16 467.533L294.385 425.667L305.611 383.8L316.837 341.933L328.062 300.067H284.69L331.804 286.111L378.919 272.156L426.034 258.2L414.809 300.067L403.583 341.933H446.956H490.329H533.702H577.075L588.301 300.067L599.526 258.2L610.752 216.333H567.379L614.494 202.378L661.609 188.422L708.724 174.467L697.498 216.333L686.272 258.2L675.047 300.067L663.821 341.933L652.595 383.8L641.369 425.667H597.996H554.623H511.25H467.877H424.504H381.131L369.906 467.533L358.68 509.4L347.454 551.267L336.228 593.133L325.003 635H281.629Z" fill="#F0F0F0"/>
<path d="M346.772 230.289L393.887 216.333L441.002 202.378L488.117 188.422L535.232 174.467L493.106 169.815L450.98 165.163L408.855 160.511L366.729 155.859L345.666 153.533L343.151 174.467L338.122 216.333L336.064 233.461L346.772 230.289Z" fill="#F0F0F0"/>
<path d="M233.151 7H189.778H146.405H103.032L140.792 27.9333L178.552 48.8667L167.326 90.7333L156.101 132.6L144.875 174.467L133.649 216.333L122.423 258.2L111.198 300.067L158.313 286.111L205.427 272.156L252.542 258.2L263.768 216.333L274.994 174.467L286.22 132.6L330.127 130.606L374.035 128.613L417.942 126.619L461.85 124.625L505.757 122.632L549.665 120.638L593.573 118.644L637.48 116.651L681.388 114.657L725.295 112.664L732.377 112.342L745.633 90.7333L771.316 48.8667L797 7H753.627H710.254H666.881H623.508H580.135H536.762H493.389H450.016H406.643H363.27H319.897H276.524H233.151Z" fill="#F0F0F0"/>
<path d="M368.375 635H411.749H455.122H498.495H541.867H585.24L708.724 559.989L585.852 568.013L560.109 566.967L517.204 565.222L474.299 563.478L431.394 561.733L388.488 559.989L379.601 593.133L368.375 635Z" fill="#F0F0F0"/>
<path d="M797 7H753.627H710.254H666.881H623.508H580.135H536.762H493.389H450.016H406.643H363.27H319.897H276.524H233.151H189.778H146.405H103.032L140.792 27.9333L178.552 48.8667L167.326 90.7333L156.101 132.6L144.875 174.467L133.649 216.333L122.423 258.2L111.198 300.067L158.313 286.111L205.427 272.156L252.542 258.2L263.768 216.333L274.994 174.467L286.22 132.6L330.127 130.606L374.035 128.613L417.942 126.619L461.85 124.625L505.757 122.632L549.665 120.638L593.573 118.644L637.48 116.651L681.388 114.657L725.295 112.664L732.377 112.342M797 7L771.316 48.8667L745.633 90.7333L732.377 112.342M797 7L732.377 112.342M230.091 341.933L218.865 383.8L207.639 425.667L196.414 467.533L185.188 509.4L173.962 551.267L216.867 553.011L206.109 593.133L194.884 635H151.51H108.138H64.7645H21.3914L32.6172 593.133L43.8429 551.267L55.0688 509.4L66.2945 467.533L77.5203 425.667L88.746 383.8H45.373H2L49.1149 369.844L96.2299 355.889L143.345 341.933L190.46 327.978L237.575 314.022L230.091 341.933ZM238.257 635H281.629H325.003L336.228 593.133L347.454 551.267L358.68 509.4L369.906 467.533L381.131 425.667H424.504H467.877H511.25H554.623H597.996H641.369L652.595 383.8L663.821 341.933L675.047 300.067L686.272 258.2L697.498 216.333L708.724 174.467L661.609 188.422L614.494 202.378L567.379 216.333H610.752L599.526 258.2L588.301 300.067L577.075 341.933H533.702H490.329H446.956H403.583L414.809 300.067L426.034 258.2L378.919 272.156L331.804 286.111L284.69 300.067H328.062L316.837 341.933L305.611 383.8L294.385 425.667L283.16 467.533L271.934 509.4L260.708 551.267L249.482 593.133L238.257 635ZM535.232 174.467L488.117 188.422L441.002 202.378L393.887 216.333L346.772 230.289L336.064 233.461L338.122 216.333L343.151 174.467L345.666 153.533L366.729 155.859L408.855 160.511L450.98 165.163L493.106 169.815L535.232 174.467ZM368.375 635H411.749H455.122H498.495H541.867H585.24L708.724 559.989L585.852 568.013L560.109 566.967L517.204 565.222L474.299 563.478L431.394 561.733L388.488 559.989L379.601 593.133L368.375 635Z" stroke="black" stroke-width="14"/>
</svg>
